# xmcd
#
# Track frame offsets:
#	150
#	20926
#	31512
#	42612
#	54234
#	69800
#	85116
#	98604
#	111387
#	126533
#	143941
#	161857
#	177358
#	191297
#	205188
#	219562
#	235267
#
# Disc length: 3360 seconds
#
# Revision: 0
# Processed by: cddbd v1.5.2PL0 Copyright (c) Steve Scherf et al.
# Submitted via: SynApp - FreeCDDB Version: 2.4
#
DISCID=f00d1e11
DTITLE=Divers - Super Disco Dancing
DYEAR=2007
DGENRE=Disco
TTITLE0=Stars on 45 - Stars on 45
TTITLE1=Coast to Coast - The Hucklebuck
TTITLE2=Bucks Fizz - Making your mind up
TTITLE3=Philipp Lynott - Yellow Pearl
TTITLE4=The Boomtown Rats - Up all Night
TTITLE5=Kool and The Gang - Take it to the Top
TTITLE6=The Gap Band - Burn Rubber on me
TTITLE7=Maywood - Distant Love
TTITLE8=Elton John - Nobody Wins
TTITLE9=Quincy Jones - Ai no corrida
TTITLE10=Kurtis Blow - The Breaks
TTITLE11=Visage - Fade to Gray
TTITLE12=Secret Service - L.A. Goodbye
TTITLE13=Chilly - Johnny loves Jenny
TTITLE14=Dennis Brown - Foul Play
TTITLE15=People´s Choice - You ought to be Dancing
TTITLE16=Yarbrough and Peoples - Don´t stop the Music
EXTD=
EXTT0=
EXTT1=
EXTT2=
EXTT3=
EXTT4=
EXTT5=
EXTT6=
EXTT7=
EXTT8=
EXTT9=
EXTT10=
EXTT11=
EXTT12=
EXTT13=
EXTT14=
EXTT15=
EXTT16=
PLAYORDER=
